REM DIRINDEX 1\2,1\3
REM DIRNAME folder01,folder02,folder03
TITLE ""
FILE "3161-3180.mp3" MP3
  TRACK 01 AUDIO
    TITLE "0:"
    INDEX 01 00:00:00
  TRACK 02 AUDIO
    TITLE "2:cjc039_5321"
    INDEX 01 00:00:27
  TRACK 03 AUDIO
    TITLE "0:"
    INDEX 01 00:01:58
  TRACK 04 AUDIO
    TITLE "3:cjc039_5322"
    INDEX 01 00:02:34
  TRACK 05 AUDIO
    TITLE "0:"
    INDEX 01 00:06:61
  TRACK 06 AUDIO
    TITLE "2:cjc039_5323"
    INDEX 01 00:08:38
  TRACK 07 AUDIO
    TITLE "0:"
    INDEX 01 00:09:65
  TRACK 08 AUDIO
    TITLE "3:cjc039_5324"
    INDEX 01 00:10:45
  TRACK 09 AUDIO
    TITLE "0:"
    INDEX 01 00:15:17
  TRACK 10 AUDIO
    TITLE "2:cjc039_5325"
    INDEX 01 00:16:59
  TRACK 11 AUDIO
    TITLE "0:"
    INDEX 01 00:17:65
  TRACK 12 AUDIO
    TITLE "3:cjc039_5326"
    INDEX 01 00:18:44
  TRACK 13 AUDIO
    TITLE "0:"
    INDEX 01 00:21:49
  TRACK 14 AUDIO
    TITLE "2:cjc039_5327"
    INDEX 01 00:23:28
  TRACK 15 AUDIO
    TITLE "0:"
    INDEX 01 00:24:43
  TRACK 16 AUDIO
    TITLE "3:cjc039_5328"
    INDEX 01 00:25:23
  TRACK 17 AUDIO
    TITLE "0:"
    INDEX 01 00:28:55
  TRACK 18 AUDIO
    TITLE "2:cjc039_5329"
    INDEX 01 00:30:32
  TRACK 19 AUDIO
    TITLE "0:"
    INDEX 01 00:31:55
  TRACK 20 AUDIO
    TITLE "3:cjc039_5330"
    INDEX 01 00:32:35
  TRACK 21 AUDIO
    TITLE "0:"
    INDEX 01 00:36:31
  TRACK 22 AUDIO
    TITLE "2:cjc039_5331"
    INDEX 01 00:38:04
  TRACK 23 AUDIO
    TITLE "0:"
    INDEX 01 00:39:11
  TRACK 24 AUDIO
    TITLE "3:cjc039_5332"
    INDEX 01 00:39:56
  TRACK 25 AUDIO
    TITLE "0:"
    INDEX 01 00:43:31
  TRACK 26 AUDIO
    TITLE "2:cjc039_5333"
    INDEX 01 00:45:08
  TRACK 27 AUDIO
    TITLE "0:"
    INDEX 01 00:46:25
  TRACK 28 AUDIO
    TITLE "3:cjc039_5334"
    INDEX 01 00:47:03
  TRACK 29 AUDIO
    TITLE "0:"
    INDEX 01 00:50:17
  TRACK 30 AUDIO
    TITLE "2:cjc039_5335"
    INDEX 01 00:51:67
  TRACK 31 AUDIO
    TITLE "0:"
    INDEX 01 00:52:73
  TRACK 32 AUDIO
    TITLE "3:cjc039_5336"
    INDEX 01 00:53:49
  TRACK 33 AUDIO
    TITLE "0:"
    INDEX 01 00:57:11
  TRACK 34 AUDIO
    TITLE "2:cjc039_5337"
    INDEX 01 00:58:62
  TRACK 35 AUDIO
    TITLE "0:"
    INDEX 01 01:00:10
  TRACK 36 AUDIO
    TITLE "3:cjc039_5338"
    INDEX 01 01:00:59
  TRACK 37 AUDIO
    TITLE "0:"
    INDEX 01 01:03:47
  TRACK 38 AUDIO
    TITLE "2:cjc039_5339"
    INDEX 01 01:05:24
  TRACK 39 AUDIO
    TITLE "0:"
    INDEX 01 01:06:49
  TRACK 40 AUDIO
    TITLE "3:cjc039_5340"
    INDEX 01 01:07:25
  TRACK 41 AUDIO
    TITLE "0:"
    INDEX 01 01:10:53
  TRACK 42 AUDIO
    TITLE "2:cjc039_5341"
    INDEX 01 01:12:24
  TRACK 43 AUDIO
    TITLE "0:"
    INDEX 01 01:13:28
  TRACK 44 AUDIO
    TITLE "3:cjc039_5342"
    INDEX 01 01:14:04
  TRACK 45 AUDIO
    TITLE "0:"
    INDEX 01 01:17:47
  TRACK 46 AUDIO
    TITLE "2:cjc039_5343"
    INDEX 01 01:19:28
  TRACK 47 AUDIO
    TITLE "0:"
    INDEX 01 01:20:71
  TRACK 48 AUDIO
    TITLE "3:cjc039_5344"
    INDEX 01 01:21:45
  TRACK 49 AUDIO
    TITLE "0:"
    INDEX 01 01:25:49
  TRACK 50 AUDIO
    TITLE "2:cjc039_5345"
    INDEX 01 01:27:30
  TRACK 51 AUDIO
    TITLE "0:"
    INDEX 01 01:28:55
  TRACK 52 AUDIO
    TITLE "3:cjc039_5346"
    INDEX 01 01:29:29
  TRACK 53 AUDIO
    TITLE "0:"
    INDEX 01 01:33:31
  TRACK 54 AUDIO
    TITLE "2:cjc039_5347"
    INDEX 01 01:35:06
  TRACK 55 AUDIO
    TITLE "0:"
    INDEX 01 01:36:62
  TRACK 56 AUDIO
    TITLE "3:cjc039_5348"
    INDEX 01 01:37:38
  TRACK 57 AUDIO
    TITLE "0:"
    INDEX 01 01:41:44
  TRACK 58 AUDIO
    TITLE "2:cjc039_5349"
    INDEX 01 01:43:19
  TRACK 59 AUDIO
    TITLE "0:"
    INDEX 01 01:44:26
  TRACK 60 AUDIO
    TITLE "3:cjc039_5350"
    INDEX 01 01:45:04
  TRACK 61 AUDIO
    TITLE "0:"
    INDEX 01 01:48:71
  TRACK 62 AUDIO
    TITLE "2:cjc039_5351"
    INDEX 01 01:50:51
  TRACK 63 AUDIO
    TITLE "0:"
    INDEX 01 01:52:08
  TRACK 64 AUDIO
    TITLE "3:cjc039_5352"
    INDEX 01 01:52:63
  TRACK 65 AUDIO
    TITLE "0:"
    INDEX 01 01:56:73
  TRACK 66 AUDIO
    TITLE "2:cjc039_5353"
    INDEX 01 01:58:48
  TRACK 67 AUDIO
    TITLE "0:"
    INDEX 01 01:59:65
  TRACK 68 AUDIO
    TITLE "3:cjc039_5354"
    INDEX 01 02:00:43
  TRACK 69 AUDIO
    TITLE "0:"
    INDEX 01 02:04:02
  TRACK 70 AUDIO
    TITLE "2:cjc039_5355"
    INDEX 01 02:05:48
  TRACK 71 AUDIO
    TITLE "0:"
    INDEX 01 02:07:10
  TRACK 72 AUDIO
    TITLE "3:cjc039_5356"
    INDEX 01 02:07:61
  TRACK 73 AUDIO
    TITLE "0:"
    INDEX 01 02:12:46
  TRACK 74 AUDIO
    TITLE "2:cjc039_5357"
    INDEX 01 02:14:22
  TRACK 75 AUDIO
    TITLE "0:"
    INDEX 01 02:15:31
  TRACK 76 AUDIO
    TITLE "3:cjc039_5358"
    INDEX 01 02:16:07
  TRACK 77 AUDIO
    TITLE "0:"
    INDEX 01 02:20:38
  TRACK 78 AUDIO
    TITLE "2:cjc039_5359"
    INDEX 01 02:22:15
  TRACK 79 AUDIO
    TITLE "0:"
    INDEX 01 02:23:56
  TRACK 80 AUDIO
    TITLE "3:cjc039_5360"
    INDEX 01 02:24:36
  TRACK 81 AUDIO
    TITLE "0:"
    INDEX 01 02:29:57
